<svg xmlns="http://www.w3.org/2000/svg" viewBox="0 0 183.19 158.67">
  <circle cx="26.74" cy="56.55" r="26.74"/>
  <path d="M40.44,27.39c-1.29-9.15,34.51-34.36,67-25.55,23.87,6.47,43.2,30.55,38.83,40.85-3.77,8.89-27.14,12.09-32.4,4.89-.75-1.03-.8-1.81-1.26-3.27-3.13-9.81-14.12-15.05-15.91-15.9-16.32-7.78-40.82.17-46.81,4.02-.59.38-2.54,1.71-4.63,1.21-2.94-.71-4.61-4.7-4.83-6.24Z"/>
  <path d="M133.67,89.17l-30.71-32.38c-3.57-3.76-1.57-9.97,3.52-10.95l47.18-9.1c5.09-.98,9.25,4.05,7.34,8.86l-16.47,41.48c-1.77,4.45-7.56,5.57-10.86,2.09Z"/>
  <path d="M153.39,75.77l-7.78,19.59c-1.77,4.45-7.56,5.57-10.86,2.09l-16.33-17.21c-12.03,7.48-20.04,20.81-20.04,36.02,0,23.42,18.98,42.4,42.4,42.4s42.4-18.98,42.4-42.4c0-19.03-12.53-35.13-29.8-40.49Z"/>
</svg>
